# xmcd CD database file
#
# Track frame offsets:
#	150
#	7367
#	15072
#	19616
#	23834
#	26524
#	33294
#	36942
#	54850
#	59306
#	62153
#	66657
#	69665
#	85807
#	91693
#	95576
#	101389
#	105172
#	119094
#	127732
#	133012
#	141701
#	147125
#	166103
#	172781
#	176927
#	183713
#	187875
#	206813
#	211132
#	213987
#	218355
#	221298
#	235299
#	240876
#	243963
#	249639
#	252817
#	269116
#	282606
#	291089
#	304628
#	313192
#	328988
#	344979
#
# Disc length: 4726 seconds
#
# Revision: 0
# Processed by: cddbd v1.5.2PL0 Copyright (c) Steve Scherf et al.
# Submitted via: CDex 1.51
#
DISCID=9a12742d
DTITLE=Dix Bruce - Swing Jazz Violin With Hot Club Rhythm CD 2
DYEAR=2008
DGENRE=Jazz
TTITLE0=Tuning Tones
TTITLE1=Dark Eyes - Melody Slow
TTITLE2=Dark Eyes - Melody Regular
TTITLE3=Dark Eyes - Trio Slow
TTITLE4=Dark Eyes - Trio Regular
TTITLE5=Dark Eyes - Solo Slow
TTITLE6=Dark Eyes - Solo Regular
TTITLE7=Dark Eyes
TTITLE8=China Boy - Melody Slow
TTITLE9=China Boy - Melody Regular
TTITLE10=China Boy - Solo Slow
TTITLE11=China Boy - Solo Regular
TTITLE12=China Boy
TTITLE13=Swing in Minor - Melody Slow
TTITLE14=Swing in Minor - Melody Regular
TTITLE15=Swing in Minor - Solo Slow
TTITLE16=Swing in Minor - Solo Regular
TTITLE17=Swing in Minor
TTITLE18=Japanese Sandman - Melody Slow
TTITLE19=Japanese Sandman - Melody Regular
TTITLE20=Japanese Sandman - Solo Slow
TTITLE21=Japanese Sandman - Solo Regular
TTITLE22=Japanese Sandman
TTITLE23=Rose Room - Melody Slow
TTITLE24=Rose Room - Melody Regular
TTITLE25=Rose Room - Solo Slow
TTITLE26=Rose Room - Solo Regular
TTITLE27=Rose Room
TTITLE28=The World is Waiting for the Sunrise - Melody Slow
TTITLE29=The World is Waiting for the Sunrise - Melody Regular
TTITLE30=The World is Waiting for the Sunrise - Solo Slow
TTITLE31=The World is Waiting for the Sunrise - Solo Regular
TTITLE32=The World is Waiting for the Sunrise
TTITLE33=Avalon - Melody Slow
TTITLE34=Avalon - Melody Regular
TTITLE35=Avalon - Solo Slow
TTITLE36=Avalon - Solo Regular
TTITLE37=Avalon
TTITLE38=St Louis Blues - Melody Slow
TTITLE39=St Louis Blues - Melody Regular
TTITLE40=St Louis Blues - Solo Slow
TTITLE41=St Louis Blues - Solo Regular
TTITLE42=St Louis Blues
TTITLE43=St Louis Blues - String Quartet
TTITLE44=Some of These Days - String Quartet
EXTD=YEAR: 2008
EXTT0=
EXTT1=
EXTT2=
EXTT3=
EXTT4=
EXTT5=
EXTT6=
EXTT7=
EXTT8=
EXTT9=
EXTT10=
EXTT11=
EXTT12=
EXTT13=
EXTT14=
EXTT15=
EXTT16=
EXTT17=
EXTT18=
EXTT19=
EXTT20=
EXTT21=
EXTT22=
EXTT23=
EXTT24=
EXTT25=
EXTT26=
EXTT27=
EXTT28=
EXTT29=
EXTT30=
EXTT31=
EXTT32=
EXTT33=
EXTT34=
EXTT35=
EXTT36=
EXTT37=
EXTT38=
EXTT39=
EXTT40=
EXTT41=
EXTT42=
EXTT43=
EXTT44=
PLAYORDER=
